P2
40 60
255
255 255 255 255 255 255 255 255 255 255 255 255 255 255 255 255 255 255 255 255 255 255 255 255 255 255 255 255 255 255 255 255 255 255 255 255 255 255 255 255 
255 255 255 255 255 255 255 255 255 255 255 255 255 255 255 255 255 255 255 255 255 255 255 255 255 255 255 255 255 255 255 255 255 255 255 255 255 255 255 255 
255 255 255 255 255 255 255 255 255 255 255 255 255 255 255 255 255 255 255 255 255 255 255 255 255 255 255 255 255 255 255 255 255 255 255 255 255 255 255 255 
255 255 255 0 0 0 0 0 0 0 0 0 0 0 0 0 0 0 0 0 0 0 0 0 0 0 0 0 0 0 0 0 0 0 0 0 0 255 255 255 
255 255 255 0 0 0 0 0 0 0 0 0 0 0 0 0 0 0 0 0 0 0 0 0 0 0 0 0 0 0 0 0 0 0 0 0 0 255 255 255 
255 255 255 0 0 0 0 0 0 0 0 0 0 0 0 0 0 0 0 1 0 0 0 0 0 0 0 0 0 0 0 0 0 0 0 0 0 255 255 255 
255 255 255 0 0 0 0 0 0 0 0 0 0 0 0 0 0 0 0 166 155 0 0 0 0 0 0 0 0 0 0 0 0 0 0 0 0 255 255 255 
255 255 255 0 0 0 0 0 0 0 0 0 0 0 0 0 0 0 90 96 96 72 0 0 0 0 0 0 0 0 0 0 0 0 0 0 0 255 255 255 
255 255 255 0 0 0 0 0 0 0 0 0 0 0 0 0 0 0 123 96 96 170 0 0 0 0 0 0 0 0 0 0 0 0 0 0 0 255 255 255 
255 255 255 0 0 0 0 0 0 0 0 0 0 0 0 0 0 117 96 96 96 96 142 0 0 0 0 0 0 0 0 0 0 0 0 0 0 255 255 255 
255 255 255 0 0 0 0 0 0 0 0 0 0 0 0 0 59 96 96 96 96 96 96 55 0 0 0 0 0 0 0 0 0 0 0 0 0 255 255 255 
255 255 255 0 0 0 0 0 0 0 0 0 0 0 0 0 142 96 96 96 96 96 96 154 0 0 0 0 0 0 0 0 0 0 0 0 0 255 255 255 
255 255 255 0 0 0 0 0 0 0 0 0 0 0 0 125 96 96 96 96 96 96 96 96 120 0 0 0 0 0 0 0 0 0 0 0 0 255 255 255 
255 255 255 0 0 0 0 0 0 0 0 0 0 0 50 96 96 96 96 96 96 96 96 96 96 36 0 0 0 0 0 0 0 0 0 0 0 255 255 255 
255 255 255 0 0 0 0 0 0 0 0 0 0 0 188 96 96 96 96 96 96 96 96 96 96 127 0 0 0 0 0 0 0 0 0 0 0 255 255 255 
255 255 255 0 0 0 0 0 0 0 0 0 0 112 96 96 96 96 96 96 96 96 96 96 96 96 107 0 0 0 0 0 0 0 0 0 0 255 255 255 
255 255 255 0 0 0 0 0 0 0 0 0 8 115 96 96 96 96 96 96 96 96 96 96 96 96 174 2 0 0 0 0 0 0 0 0 0 255 255 255 
255 255 255 0 0 0 0 0 0 0 0 0 147 96 96 96 96 96 96 96 96 96 96 96 96 96 96 171 0 0 0 0 0 0 0 0 0 255 255 255 
255 255 255 0 0 0 0 0 0 0 0 95 96 96 96 96 96 96 96 96 96 96 96 96 96 96 96 96 91 0 0 0 0 0 0 0 0 255 255 255 
255 255 255 0 0 0 0 0 0 0 0 165 96 96 96 96 185 96 96 156 190 96 96 96 96 96 96 96 141 0 0 0 0 0 0 0 0 255 255 255 
255 255 255 0 0 0 0 0 0 0 121 96 96 96 96 181 92 148 0 0 0 0 104 182 96 96 96 96 96 154 0 0 0 0 0 0 0 255 255 255 
255 255 255 0 0 0 0 0 0 85 96 96 96 96 164 183 255 105 0 0 0 0 0 0 39 182 96 96 96 96 69 0 0 0 0 0 0 255 255 255 
255 255 255 0 0 0 0 0 0 117 96 96 96 105 0 192 255 25 0 0 0 0 0 0 0 0 133 96 96 96 144 0 0 0 0 0 0 255 255 255 
255 255 255 0 0 0 0 0 124 96 96 96 99 0 0 204 255 10 0 0 0 0 0 0 0 0 0 134 96 96 96 135 0 0 0 0 0 255 255 255 
255 255 255 0 0 0 0 62 96 96 96 156 0 0 0 209 255 10 0 0 0 0 0 0 0 0 0 0 184 96 96 96 57 0 0 0 0 255 255 255 
255 255 255 0 0 0 0 117 96 96 162 1 0 0 0 193 255 47 0 0 0 0 0 0 0 0 0 0 44 96 96 96 193 0 0 0 0 255 255 255 
255 255 255 0 0 0 117 96 96 96 153 0 0 0 0 176 255 93 0 0 0 0 0 0 0 0 0 0 0 159 96 96 96 121 0 0 0 255 255 255 
255 255 255 0 0 31 96 96 96 96 65 0 0 0 0 104 255 174 0 0 0 0 0 0 0 0 0 0 0 108 96 96 96 178 35 0 0 255 255 255 
255 255 255 0 0 158 96 96 96 96 0 0 0 0 0 56 255 231 0 0 0 0 0 0 0 0 0 0 0 0 96 96 96 96 171 0 0 255 255 255 
255 255 255 0 102 96 96 96 96 142 0 0 0 0 0 2 255 253 0 0 0 0 0 0 0 0 0 0 0 1 96 96 96 96 96 105 0 255 255 255 
255 255 255 0 83 96 96 96 96 177 0 0 0 0 0 0 196 255 146 0 0 0 0 0 0 0 0 0 0 0 96 96 96 96 96 103 0 255 255 255 
255 255 255 0 0 169 96 96 96 96 0 0 0 0 0 0 167 255 158 0 0 0 0 0 0 0 0 0 0 0 96 96 96 96 180 0 0 255 255 255 
255 255 255 0 0 0 185 96 96 96 54 0 0 0 0 0 61 255 252 0 0 0 0 0 0 0 0 0 0 107 96 96 96 158 21 0 0 255 255 255 
255 255 255 0 0 0 107 96 96 96 152 0 0 0 0 0 0 248 254 66 0 0 0 0 0 0 0 0 0 179 96 96 96 117 0 0 0 255 255 255 
255 255 255 0 0 0 8 175 96 96 172 1 0 0 0 0 0 135 255 237 0 0 0 0 0 0 0 0 32 96 96 96 191 0 0 0 0 255 255 255 
255 255 255 0 0 0 0 44 96 96 96 152 0 0 0 0 0 1 247 255 70 0 0 0 0 0 0 0 180 96 96 96 55 0 0 0 0 255 255 255 
255 255 255 0 0 0 0 0 100 96 96 96 97 0 0 0 0 0 139 255 237 0 0 0 0 0 0 133 96 96 96 137 0 0 0 0 0 255 255 255 
255 255 255 0 0 0 0 0 63 142 96 96 96 97 0 0 0 0 0 246 255 136 0 0 0 0 131 96 96 96 190 0 0 0 0 0 0 255 255 255 
255 255 255 0 0 0 0 0 0 87 96 96 96 96 155 0 0 0 0 52 255 255 128 0 21 176 96 96 96 96 63 0 0 0 0 0 0 255 255 255 
255 255 255 0 0 0 0 0 0 0 105 96 96 96 96 197 164 81 0 0 186 254 239 174 96 96 96 96 96 150 0 0 0 0 0 0 0 255 255 255 
255 255 255 0 0 0 0 0 0 0 1 177 96 96 96 96 96 96 96 136 130 114 124 96 96 96 96 96 176 1 0 0 0 0 0 0 0 255 255 255 
255 255 255 0 0 0 0 0 0 0 0 88 96 96 96 96 96 96 96 96 96 96 96 96 96 96 96 96 84 0 0 0 0 0 0 0 0 255 255 255 
255 255 255 0 0 0 0 0 0 0 0 0 160 96 96 96 96 96 96 96 96 96 96 96 96 96 96 142 0 0 0 0 0 0 0 0 0 255 255 255 
255 255 255 0 0 0 0 0 0 0 0 0 4 174 96 96 96 96 96 96 96 96 96 96 96 96 153 1 0 0 0 0 0 0 0 0 0 255 255 255 
255 255 255 0 0 0 0 0 0 0 0 0 0 111 96 96 96 96 96 96 96 96 96 96 96 96 101 0 0 0 0 0 0 0 0 0 0 255 255 255 
255 255 255 0 0 0 0 0 0 0 0 0 0 0 188 96 96 96 96 96 96 96 96 96 96 143 0 0 0 0 0 0 0 0 0 0 0 255 255 255 
255 255 255 0 0 0 0 0 0 0 0 0 0 0 48 96 96 96 96 96 96 96 96 96 189 21 0 0 0 0 0 0 0 0 0 0 0 255 255 255 
255 255 255 0 0 0 0 0 0 0 0 0 0 0 0 132 96 96 96 96 96 96 96 96 116 0 0 0 0 0 0 0 0 0 0 0 0 255 255 255 
255 255 255 0 0 0 0 0 0 0 0 0 0 0 0 0 189 96 96 96 96 96 96 159 1 0 0 0 0 0 0 0 0 0 0 0 0 255 255 255 
255 255 255 0 0 0 0 0 0 0 0 0 0 0 0 0 67 96 96 96 96 96 96 54 0 0 0 0 0 0 0 0 0 0 0 0 0 255 255 255 
255 255 255 0 0 0 0 0 0 0 0 0 0 0 0 0 0 154 96 96 96 96 133 0 0 0 0 0 0 0 0 0 0 0 0 0 0 255 255 255 
255 255 255 0 0 0 0 0 0 0 0 0 0 0 0 0 0 1 184 96 96 188 0 0 0 0 0 0 0 0 0 0 0 0 0 0 0 255 255 255 
255 255 255 0 0 0 0 0 0 0 0 0 0 0 0 0 0 0 94 96 96 63 0 0 0 0 0 0 0 0 0 0 0 0 0 0 0 255 255 255 
255 255 255 0 0 0 0 0 0 0 0 0 0 0 0 0 0 0 0 174 149 0 0 0 0 0 0 0 0 0 0 0 0 0 0 0 0 255 255 255 
255 255 255 0 0 0 0 0 0 0 0 0 0 0 0 0 0 0 0 0 0 0 0 0 0 0 0 0 0 0 0 0 0 0 0 0 0 255 255 255 
255 255 255 0 0 0 0 0 0 0 0 0 0 0 0 0 0 0 0 0 0 0 0 0 0 0 0 0 0 0 0 0 0 0 0 0 0 255 255 255 
255 255 255 0 0 0 0 0 0 0 0 0 0 0 0 0 0 0 0 0 0 0 0 0 0 0 0 0 0 0 0 0 0 0 0 0 0 255 255 255 
255 255 255 255 255 255 255 255 255 255 255 255 255 255 255 255 255 255 255 255 255 255 255 255 255 255 255 255 255 255 255 255 255 255 255 255 255 255 255 255 
255 255 255 255 255 255 255 255 255 255 255 255 255 255 255 255 255 255 255 255 255 255 255 255 255 255 255 255 255 255 255 255 255 255 255 255 255 255 255 255 
255 255 255 255 255 255 255 255 255 255 255 255 255 255 255 255 255 255 255 255 255 255 255 255 255 255 255 255 255 255 255 255 255 255 255 255 255 255 255 255 
