P2
37 9
255
255 255 255 255 255 255 255 255 255 255 255 255 255 255 255 255 255 255 255 255 255 255 255 255 255 255 255 255 255 255 255 255 255 255 255 255 255 
255 255 255 255 255 255 255 255 255 255 255 255 255 255 255 255 255 255 255 255 255 255 255 255 255 255 255 255 255 255 255 255 255 255 255 255 255 
255 255 204 204 204 204 204 255 255 156 156 156 156 156 255 255 112 112 112 112 112 255 255 64 64 64 64 64 255 255 23 23 23 23 23 255 255 
255 255 204 255 255 255 255 255 255 156 255 255 255 255 255 255 112 255 255 255 255 255 255 64 255 255 255 255 255 255 255 255 23 255 255 255 255 
255 255 204 255 255 255 255 255 255 156 156 156 255 255 255 255 112 112 112 255 255 255 255 64 64 64 255 255 255 255 255 255 23 255 255 255 255 
255 255 204 255 255 255 255 255 255 156 255 255 255 255 255 255 112 255 255 255 255 255 255 64 255 255 255 255 255 255 255 255 23 255 255 255 255 
255 255 204 204 204 204 204 255 255 156 156 156 156 156 255 255 112 255 255 255 255 255 255 64 64 64 64 64 255 255 255 255 23 255 255 255 255 
255 255 255 255 255 255 255 255 255 255 255 255 255 255 255 255 255 255 255 255 255 255 255 255 255 255 255 255 255 255 255 255 255 255 255 255 255 
255 255 255 255 255 255 255 255 255 255 255 255 255 255 255 255 255 255 255 255 255 255 255 255 255 255 255 255 255 255 255 255 255 255 255 255 255 
